<?xml version="1.0" encoding="utf-8"?>
<!-- Generator: Adobe Illustrator 19.2.1, SVG Export Plug-In . SVG Version: 6.00 Build 0)  -->
<svg version="1.1" id="Capa_1" xmlns="http://www.w3.org/2000/svg" xmlns:xlink="http://www.w3.org/1999/xlink" x="0px" y="0px"
	 viewBox="0 0 241.7 88.3" style="enable-background:new 0 0 241.7 88.3;" xml:space="preserve">
<style type="text/css">
	.st0{fill:#7EA739;}
	.st1{fill:#FAF39F;}
	.st2{fill:#49A9E1;}
	.st3{stroke:#000000;stroke-width:0.4582;}
	.st4{fill:none;}
</style>
<g>
	<rect x="16.6" y="19.3" class="st0" width="67.2" height="34.7"/>
	<rect x="87.9" y="10.6" class="st1" width="67.2" height="59.4"/>
	<rect x="160.5" y="36.7" class="st2" width="67.2" height="25.6"/>
	<g>
		<path class="st3" d="M23,65.3c0,0.3,0,0.7,0,1.1c0,0.4,0,0.8,0,1c0,0.4,0,0.9,0,1.5c0,0.5,0,0.8,0,0.9c0,0-0.1,0-0.3,0
			c-0.2,0-0.4,0-0.6,0c-0.9,0-1.7-0.1-2.4-0.3c-0.7-0.2-1.3-0.6-1.8-1.2c-0.3-0.3-0.6-0.8-0.8-1.3c-0.2-0.5-0.3-1.1-0.3-1.7
			c0-0.8,0.2-1.5,0.5-2.1c0.4-0.6,0.9-1.1,1.5-1.5c0.4-0.3,0.9-0.5,1.5-0.6c0.6-0.1,1.1-0.2,1.7-0.2c0.1,0,0.2,0,0.3,0
			c0.1,0,0.2,0,0.2,0l0.1,0.9c0,0-0.1,0-0.2,0c-0.1,0-0.2,0-0.3,0c-0.6,0-1.1,0.1-1.6,0.2c-0.5,0.1-0.9,0.3-1.3,0.5
			c-0.5,0.3-0.9,0.7-1.2,1.2c-0.3,0.5-0.4,1-0.4,1.6c0,0.7,0.1,1.3,0.4,1.8c0.3,0.5,0.7,0.8,1.1,1.1c0.4,0.2,0.8,0.4,1.3,0.5
			s0.9,0.1,1.4,0.1c0-0.1,0-0.4,0-1c0-0.6,0-1.5,0-2.7H23z"/>
		<path class="st3" d="M30.2,69.7c0,0-0.3,0-0.8,0c-0.5,0-1.1,0-1.7,0c-0.5,0-0.9,0-1.3,0c-0.4,0-0.7,0-1,0c0-0.3,0-0.8,0-1.6
			c0-0.8,0-1.7,0-2.6c0-0.5,0-1.1,0-1.9c0-0.8,0-1.6,0-2.5c0.3,0,0.6,0,1,0c0.4,0,0.8,0,1.2,0c0.7,0,1.3,0,1.8,0c0.5,0,0.7,0,0.7,0
			V62c0,0-0.3,0-0.7,0c-0.4,0-1,0-1.6,0c-0.3,0-0.6,0-0.8,0c-0.3,0-0.5,0-0.6,0c0,0.5,0,1,0,1.5c0,0.5,0,0.9,0,1.4
			c0.2,0,0.4,0,0.6,0c0.2,0,0.4,0,0.6,0c0.7,0,1.3,0,1.8,0c0.5,0,0.8,0,0.8,0v0.9c0,0-0.3,0-0.9,0c-0.6,0-1.1,0-1.6,0
			c-0.2,0-0.4,0-0.7,0s-0.5,0-0.6,0c0,0.8,0,1.5,0,1.9c0,0.5,0,0.9,0,1.2c0.2,0,0.5,0,0.8,0c0.3,0,0.7,0,1,0c0.6,0,1,0,1.4,0
			c0.4,0,0.6,0,0.6,0V69.7z"/>
		<path class="st3" d="M39.2,65.4c0,0.7-0.1,1.3-0.3,1.9c-0.2,0.6-0.5,1.1-0.8,1.5c-0.4,0.4-0.8,0.7-1.2,0.9
			C36.4,69.9,36,70,35.5,70c-0.5,0-0.9-0.1-1.3-0.3c-0.4-0.2-0.8-0.5-1.1-0.8c-0.4-0.4-0.7-0.9-0.9-1.5c-0.2-0.6-0.3-1.3-0.3-2
			c0-0.7,0.1-1.3,0.3-1.8c0.2-0.5,0.4-1,0.8-1.5c0.3-0.4,0.7-0.7,1.2-0.9c0.5-0.2,0.9-0.3,1.4-0.3c0.5,0,1,0.1,1.4,0.3
			c0.4,0.2,0.8,0.5,1.1,0.9c0.4,0.4,0.7,0.9,0.8,1.5C39.1,64.1,39.2,64.7,39.2,65.4z M38.2,65.5c0-0.6-0.1-1.1-0.2-1.7
			c-0.2-0.5-0.4-1-0.8-1.4c-0.2-0.3-0.5-0.4-0.8-0.6c-0.3-0.1-0.6-0.2-0.9-0.2c-0.3,0-0.7,0.1-1,0.2c-0.3,0.1-0.6,0.3-0.8,0.6
			c-0.3,0.3-0.5,0.8-0.7,1.3c-0.2,0.5-0.3,1-0.3,1.6c0,0.6,0.1,1.2,0.3,1.7c0.2,0.5,0.4,0.9,0.7,1.3c0.2,0.2,0.5,0.4,0.8,0.6
			s0.6,0.2,1,0.2c0.3,0,0.7-0.1,0.9-0.2c0.3-0.1,0.6-0.3,0.8-0.6c0.3-0.3,0.5-0.7,0.7-1.2S38.2,66.1,38.2,65.5z"/>
		<path class="st3" d="M46.9,65.3c0,0.3,0,0.7,0,1.1c0,0.4,0,0.8,0,1c0,0.4,0,0.9,0,1.5c0,0.5,0,0.8,0,0.9c0,0-0.1,0-0.3,0
			c-0.2,0-0.4,0-0.6,0c-0.9,0-1.7-0.1-2.4-0.3c-0.7-0.2-1.3-0.6-1.8-1.2c-0.3-0.3-0.6-0.8-0.8-1.3c-0.2-0.5-0.3-1.1-0.3-1.7
			c0-0.8,0.2-1.5,0.5-2.1c0.4-0.6,0.9-1.1,1.5-1.5c0.4-0.3,0.9-0.5,1.5-0.6C44.8,61,45.4,61,46,61c0.1,0,0.2,0,0.3,0
			c0.1,0,0.2,0,0.2,0l0.1,0.9c0,0-0.1,0-0.2,0c-0.1,0-0.2,0-0.3,0c-0.6,0-1.1,0.1-1.6,0.2c-0.5,0.1-0.9,0.3-1.3,0.5
			c-0.5,0.3-0.9,0.7-1.2,1.2c-0.3,0.5-0.4,1-0.4,1.6c0,0.7,0.1,1.3,0.4,1.8c0.3,0.5,0.7,0.8,1.1,1.1c0.4,0.2,0.8,0.4,1.3,0.5
			s0.9,0.1,1.4,0.1c0-0.1,0-0.4,0-1c0-0.6,0-1.5,0-2.7H46.9z"/>
		<path class="st3" d="M55.1,69.2l-0.7,0.7c-0.1-0.1-0.4-0.5-0.9-1.1c-0.5-0.7-1.3-1.7-2.3-3l0-0.1c0.1,0,0.3-0.1,0.6-0.3
			c0.2-0.1,0.4-0.3,0.6-0.5c0.1-0.1,0.3-0.3,0.4-0.5c0.1-0.2,0.2-0.5,0.2-0.9c0-0.3-0.1-0.6-0.2-0.9c-0.2-0.2-0.4-0.4-0.6-0.5
			c-0.2-0.1-0.5-0.2-0.7-0.2c-0.2,0-0.5,0-0.7,0c-0.1,0-0.2,0-0.3,0c-0.1,0-0.1,0-0.2,0c0,0.8,0,1.5,0,2.2c0,0.6,0,1.1,0,1.3
			c0,0.6,0,1.4,0,2.4c0,1,0,1.7,0,1.9h-0.9c0-0.3,0-0.8,0-1.5c0-0.7,0-1.7,0-2.8c0-0.2,0-0.6,0-1.2c0-0.6,0-1.6,0-3.2
			c0,0,0.2,0,0.6,0c0.3,0,0.7,0,0.9,0c0.3,0,0.6,0,1,0.1c0.3,0,0.6,0.1,0.9,0.3c0.4,0.2,0.7,0.4,0.9,0.8c0.2,0.4,0.3,0.8,0.3,1.2
			c0,0.6-0.2,1.1-0.5,1.5c-0.3,0.4-0.6,0.7-0.9,0.9v0c0.5,0.7,1.1,1.4,1.7,2.1C54.8,68.8,55.1,69.2,55.1,69.2z"/>
		<path class="st3" d="M63,69.4l-0.9,0.5c0,0-0.1-0.4-0.4-1c-0.2-0.6-0.5-1.4-0.9-2.3h-3.4c-0.4,1-0.7,1.8-0.9,2.3
			c-0.2,0.6-0.3,0.9-0.4,0.9l-0.8-0.5c0.1-0.2,0.5-1.2,1.2-3c0.7-1.8,1.5-3.6,2.2-5.5h0.7c0.8,1.9,1.5,3.8,2.2,5.6
			C62.6,68.4,63,69.3,63,69.4z M60.5,65.8c-0.2-0.5-0.4-1.1-0.6-1.7c-0.2-0.6-0.5-1.2-0.7-1.8l0,0c-0.2,0.5-0.4,1.1-0.7,1.8
			c-0.3,0.7-0.5,1.3-0.7,1.7l0,0L60.5,65.8L60.5,65.8z"/>
		<path class="st3" d="M69.1,62c-0.1,0-0.3,0-0.7,0c-0.4,0-1,0-1.6,0c-0.3,0-0.5,0-0.8,0c-0.2,0-0.4,0-0.6,0c0,0.5,0,1,0,1.6
			c0,0.6,0,1.1,0,1.5c0,0,0.2,0,0.4,0c0.2,0,0.4,0,0.6,0c0.6,0,1.2,0,1.8,0c0.6,0,0.9,0,0.9,0v0.9c-0.1,0-0.4,0-1.1,0
			c-0.6,0-1.2,0-1.7,0c-0.2,0-0.3,0-0.6,0c-0.2,0-0.3,0-0.4,0c0,0.8,0,1.5,0,2.2c0,0.7,0,1.2,0,1.6h-0.9c0-0.3,0-0.7,0-1.4
			c0-0.7,0-1.6,0-2.9c0-0.5,0-1.1,0-1.9c0-0.8,0-1.6,0-2.5c0.3,0,0.6,0,1,0c0.4,0,0.8,0,1.3,0c0.7,0,1.2,0,1.6,0c0.4,0,0.7,0,0.7,0
			V62z"/>
		<path class="st3" d="M73.3,59.2l-2.5,1.2l-0.3-0.6l2.5-1.3L73.3,59.2z M72,69.7H71c0-0.3,0-0.7,0-1.4c0-0.7,0-1.6,0-2.9
			c0-0.5,0-1.1,0-1.9c0-0.8,0-1.6,0-2.5H72c0,0.6,0,1.3,0,2.2c0,0.8,0,1.5,0,2c0,1.3,0,2.3,0,3.1C72,69,72,69.5,72,69.7z"/>
		<path class="st3" d="M81,69.4l-0.9,0.5c0,0-0.1-0.4-0.4-1s-0.5-1.4-0.9-2.3h-3.4c-0.4,1-0.7,1.8-0.9,2.3c-0.2,0.6-0.3,0.9-0.4,0.9
			l-0.8-0.5c0.1-0.2,0.5-1.2,1.2-3c0.7-1.8,1.5-3.6,2.2-5.5h0.7c0.8,1.9,1.5,3.8,2.2,5.6C80.6,68.4,81,69.3,81,69.4z M78.5,65.8
			c-0.2-0.5-0.4-1.1-0.6-1.7c-0.2-0.6-0.5-1.2-0.7-1.8l0,0c-0.2,0.5-0.4,1.1-0.7,1.8c-0.3,0.7-0.5,1.3-0.7,1.7l0,0L78.5,65.8
			L78.5,65.8z"/>
		<path class="st3" d="M95.6,61c0,0.8,0,1.5,0,2.1c0,0.5,0,1,0,1.4c0,0.5,0,0.9,0,1.3c0,0.3,0,0.6,0,0.9c0,0.5-0.1,0.9-0.2,1.3
			c-0.1,0.4-0.3,0.7-0.6,1s-0.6,0.5-1,0.7c-0.4,0.2-0.8,0.2-1.3,0.2c-0.5,0-1-0.1-1.3-0.2c-0.4-0.2-0.7-0.4-1-0.7
			c-0.3-0.3-0.5-0.6-0.6-1c-0.1-0.4-0.2-0.8-0.2-1.3c0-0.3,0-0.6,0-0.9c0-0.3,0-0.8,0-1.3c0-0.4,0-0.9,0-1.4c0-0.5,0-1.2,0-2.1h0.9
			c0,0.1,0,0.5,0,1.1c0,0.6,0,1.5,0,2.5c0,0.3,0,0.6,0,1c0,0.3,0,0.7,0,1c0,0.8,0.2,1.4,0.6,1.8c0.4,0.4,0.9,0.6,1.6,0.6
			c0.7,0,1.3-0.2,1.7-0.6c0.4-0.4,0.6-1,0.6-1.8c0-0.3,0-0.7,0-1c0-0.3,0-0.7,0-1c0-1,0-1.9,0-2.5c0-0.7,0-1,0-1.1H95.6z"/>
		<path class="st3" d="M104.1,69.2l-0.7,0.7c-0.1-0.1-0.4-0.5-0.9-1.1c-0.5-0.7-1.3-1.7-2.3-3l0-0.1c0.1,0,0.3-0.1,0.6-0.3
			c0.2-0.1,0.4-0.3,0.6-0.5c0.1-0.1,0.3-0.3,0.4-0.5c0.1-0.2,0.2-0.5,0.2-0.9c0-0.3-0.1-0.6-0.2-0.9c-0.2-0.2-0.4-0.4-0.6-0.5
			c-0.2-0.1-0.5-0.2-0.7-0.2c-0.2,0-0.5,0-0.7,0c-0.1,0-0.2,0-0.3,0c-0.1,0-0.1,0-0.2,0c0,0.8,0,1.5,0,2.2c0,0.6,0,1.1,0,1.3
			c0,0.6,0,1.4,0,2.4c0,1,0,1.7,0,1.9h-0.9c0-0.3,0-0.8,0-1.5c0-0.7,0-1.7,0-2.8c0-0.2,0-0.6,0-1.2c0-0.6,0-1.6,0-3.2
			c0,0,0.2,0,0.6,0c0.3,0,0.7,0,0.9,0c0.3,0,0.7,0,1,0.1c0.3,0,0.6,0.1,0.9,0.3c0.4,0.2,0.7,0.4,0.9,0.8c0.2,0.4,0.3,0.8,0.3,1.2
			c0,0.6-0.2,1.1-0.5,1.5c-0.3,0.4-0.6,0.7-0.9,0.9v0c0.5,0.7,1.1,1.4,1.7,2.1C103.7,68.8,104.1,69.2,104.1,69.2z"/>
		<path class="st3" d="M111,67.2c0,0.4-0.1,0.8-0.3,1.2c-0.2,0.3-0.5,0.6-0.9,0.8c-0.3,0.2-0.7,0.3-1.1,0.4
			c-0.4,0.1-0.8,0.1-1.4,0.1c-0.4,0-0.8,0-1.2,0c-0.4,0-0.6,0-0.7,0c0-0.8,0-1.6,0-2.4c0-0.7,0-1.4,0-2.1c0-1.3,0-2.3,0-3
			c0-0.7,0-1.1,0-1.2c0.1,0,0.3,0,0.6,0c0.4,0,0.7,0,1.1,0c0.4,0,0.8,0,1.1,0.1c0.3,0.1,0.6,0.1,0.8,0.2c0.3,0.2,0.6,0.4,0.8,0.7
			c0.2,0.3,0.3,0.6,0.3,1.1c0,0.4-0.1,0.8-0.4,1.2c-0.2,0.3-0.5,0.6-0.8,0.7V65c0.3,0,0.5,0.1,0.8,0.2c0.2,0.1,0.5,0.3,0.6,0.5
			c0.2,0.2,0.3,0.4,0.4,0.6C111,66.6,111,66.8,111,67.2z M110,67.2c0-0.2,0-0.4-0.1-0.6c-0.1-0.2-0.2-0.3-0.3-0.5
			c-0.1-0.1-0.3-0.3-0.5-0.4c-0.2-0.1-0.5-0.1-0.7-0.1c-0.2,0-0.4,0-0.5,0c-0.1,0-0.2,0-0.3,0l-0.1-0.8c0.3,0,0.5,0,0.7-0.1
			c0.2-0.1,0.4-0.2,0.6-0.3c0.2-0.1,0.3-0.3,0.4-0.5c0.1-0.2,0.2-0.4,0.2-0.7c0-0.3-0.1-0.5-0.2-0.7c-0.1-0.2-0.3-0.3-0.5-0.5
			c-0.2-0.1-0.4-0.2-0.6-0.2c-0.2,0-0.5-0.1-0.8-0.1c-0.2,0-0.3,0-0.5,0c-0.1,0-0.2,0-0.3,0c0,0.6,0,1.3,0,2c0,0.7,0,1.2,0,1.5
			c0,0.7,0,1.5,0,2.2c0,0.8,0,1.2,0,1.2c0.1,0,0.2,0,0.3,0c0.1,0,0.2,0,0.4,0c0.4,0,0.8,0,1.2-0.1c0.4-0.1,0.7-0.2,0.9-0.3
			c0.2-0.1,0.4-0.3,0.5-0.5C110,67.8,110,67.5,110,67.2z"/>
		<path class="st3" d="M119.4,69.4l-0.9,0.5c0,0-0.1-0.4-0.4-1s-0.5-1.4-0.9-2.3h-3.4c-0.4,1-0.7,1.8-0.9,2.3
			c-0.2,0.6-0.3,0.9-0.4,0.9l-0.8-0.5c0.1-0.2,0.5-1.2,1.2-3c0.7-1.8,1.5-3.6,2.2-5.5h0.7c0.8,1.9,1.5,3.8,2.2,5.6
			C119,68.4,119.4,69.3,119.4,69.4z M116.9,65.8c-0.2-0.5-0.4-1.1-0.6-1.7c-0.2-0.6-0.5-1.2-0.7-1.8l0,0c-0.2,0.5-0.4,1.1-0.7,1.8
			c-0.3,0.7-0.5,1.3-0.7,1.7l0,0L116.9,65.8L116.9,65.8z"/>
		<path class="st3" d="M127.4,61c0,0.7,0,1.5,0,2.3c0,0.9,0,1.5,0,1.9c0,1.2,0,2.2,0,2.9c0,0.7,0,1.1,0,1.2l-0.8,0.4
			c-1.1-1.8-2.2-3.4-3.2-4.8c-1-1.4-1.6-2.2-1.7-2.5l0,0c0,1.2,0,2.6,0,4.3c0,1.7,0,2.7,0,2.9h-0.9c0-0.1,0-0.5,0-1.2s0-1.6,0-2.8
			c0-0.5,0-1.1,0-1.9c0-0.8,0-1.6,0-2.5l0.9-0.5c0.1,0.1,0.6,0.9,1.7,2.5c1.1,1.6,2.1,3.1,3.1,4.4l0,0c0-0.7,0-1.8,0-3.4
			c0-1.6,0-2.7,0-3.5H127.4z"/>
		<path class="st3" d="M136.3,69.4l-0.9,0.5c0,0-0.1-0.4-0.4-1c-0.2-0.6-0.5-1.4-0.9-2.3h-3.4c-0.4,1-0.7,1.8-0.9,2.3
			c-0.2,0.6-0.3,0.9-0.4,0.9l-0.8-0.5c0.1-0.2,0.5-1.2,1.2-3c0.7-1.8,1.5-3.6,2.2-5.5h0.7c0.8,1.9,1.5,3.8,2.2,5.6
			C135.9,68.4,136.3,69.3,136.3,69.4z M133.9,65.8c-0.2-0.5-0.4-1.1-0.6-1.7c-0.2-0.6-0.5-1.2-0.7-1.8l0,0c-0.2,0.5-0.4,1.1-0.7,1.8
			c-0.3,0.7-0.5,1.3-0.7,1.7l0,0L133.9,65.8L133.9,65.8z"/>
	</g>
	<g>
		<path d="M223.1,51.1c-0.8,2.2-2.6,3.2-4.8,3.4c-2.1,0.2-4.1,0.1-6.2,0c-3.9-0.2-7.8-0.3-11.7-0.8c-6.5-0.7-12.9-1.5-19.2-3.4
			c-3.2-1-6.3-2.1-9.4-3.2c-2.5-0.8-5-1.5-7.5-2c-1.4-0.2-2.6,0.1-3.8,0.8c-2.9,1.8-6.2,2.7-9.6,2.9c-4,0.2-8,0.1-11.9-1
			c-2.3-0.6-4.5-1.5-6.8-2.1c-3.5-1-7.1-1.8-10.8-2.1c-2-0.1-3.7,0.4-5.2,1.7c-1.9,1.5-3.7,3.1-5.7,4.5c-2.8,2-6,3.1-9.4,3.2
			c-4,0.1-7.7-1-11.3-2.7c-4.5-2.2-8.5-5.1-12.3-8.3c-1.5-1.3-3-2.5-4.6-3.6c-2.1-1.4-4.6-1.8-7-2.1c-1.7-0.2-3.3-0.3-5,0.2
			c-1.1,0.4-2.2,0.9-3.2,1.5c-3.1,1.5-6.2,2.9-9.2,4.5c-2.6,1.4-5.1,3.2-7.7,4.7c-4.7,2.7-9.6,4.8-14.9,6.1c-2.8,0.7-5.8,1-8.7,1.4
			c-0.9,0.1-1.7,0.2-2.6,0.2c-0.9,0-1.7-0.3-2.2-1.2c0-0.3,0-0.6,0-0.9c0.5-0.6,0.8-1.4,1.4-1.9c1-0.9,2.3-1.3,3.7-1.5
			c2.3-0.3,4.5-0.4,6.8-0.9c4.7-1,9.2-2.8,13.4-5.2c2.6-1.5,5.1-3.2,7.7-4.7c4.5-2.7,9.4-4.5,14.1-6.8c1.5-0.8,3.2-1,4.9-1.1
			c1.6,0,3.2,0,4.8,0c1.3,0.2,2.5,0.3,3.8,0.5c3.5,0.6,6.5,2.1,9.1,4.4c2.6,2.2,5.3,4.3,8,6.4c3,2.3,6.3,4,9.9,4.9
			c1,0.3,2.1,0.4,3.2,0.5c2,0.2,3.6-0.6,5-1.9c1.8-1.5,3.6-3,5.6-4.4c2.9-2,6.2-3.2,9.7-3.1c2.1,0.1,4.2,0.3,6.2,0.7
			c4.3,0.7,8.4,1.9,12.5,3.3c3.8,1.2,7.8,1.7,11.8,1.2c1.4-0.2,2.6-0.7,3.8-1.4c1.5-0.8,3-1.7,4.7-2c2.6-0.6,5.3-0.5,7.8,0.2
			c3.1,0.8,6.1,1.8,9.2,2.9c6.3,2.1,12.6,3.7,19.2,4.7c6.7,1,13.5,1.5,20.2,1.5c0.6,0,1.3,0.1,1.9,0c1.1,0,1.8,0.3,2.2,1.4
			C223.1,50.7,223.1,50.9,223.1,51.1z"/>
	</g>
</g>
<rect class="st4" width="241.7" height="88.3"/>
</svg>
